# xmcd
#
# Track frame offsets:
#	150
#	14875
#	26460
#	40152
#	50012
#	64700
#	78002
#	90522
#	104680
#	115790
#	129947
#	134235
#
# Disc length: 1867 seconds
#
# Revision: 4
# Processed by: cddbd v1.5.1PL2 Copyright (c) Steve Scherf et al.
# Submitted via: audiograbber 1.83.01
#
DISCID=a007490c
DTITLE=Leadbelly - Good Night Irene
DYEAR=1996
DGENRE=Blues
TTITLE0=In New Orleans
TTITLE1=Goodnight Irene
TTITLE2=Where Did You Sleep Last Night
TTITLE3=How Long
TTITLE4=John Hardy
TTITLE5=When The Boys Were On Three Western Plains
TTITLE6=Pretty Flower In Your Backyard
TTITLE7=Roberta
TTITLE8=I've Got A Pretty Flower
TTITLE9=Yellow Gal
TTITLE10=Line em
TTITLE11=Big Fat Woman
EXTD=
EXTT0=
EXTT1=
EXTT2=
EXTT3=
EXTT4=
EXTT5=
EXTT6=
EXTT7=
EXTT8=
EXTT9=
EXTT10=
EXTT11=
PLAYORDER=
